<svg xmlns="http://www.w3.org/2000/svg" version="1.1" xmlns:xlink="http://www.w3.org/1999/xlink" xmlns:svgjs="http://svgjs.dev/svgjs" viewBox="0 0 800 800"><defs><linearGradient x1="50%" y1="0%" x2="50%" y2="100%" id="ffflurry-grad" gradientTransform="rotate(270)"><stop stop-color="hsl(238, 82%, 13%)" stop-opacity="1" offset="0%"></stop><stop stop-color="hsl(1.4, 100%, 67%)" stop-opacity="1" offset="45%"></stop><stop stop-color="hsl(167, 52%, 78%)" stop-opacity="1" offset="100%"></stop></linearGradient></defs><rect width="100%" height="100%" fill="hsl(238, 82%, 13%)"></rect><g fill="url(#ffflurry-grad)"><rect width="201" height="3" x="237.5" y="506.5" rx="1.5" transform="rotate(45, 338, 508)" opacity="0.39"></rect><rect width="107" height="3" x="561.5" y="279.5" rx="1.5" transform="rotate(45, 615, 281)" opacity="0.96"></rect><rect width="187" height="3" x="302.5" y="325.5" rx="1.5" transform="rotate(45, 396, 327)" opacity="0.65"></rect><rect width="503" height="3" x="-113.5" y="451.5" rx="1.5" transform="rotate(45, 138, 453)" opacity="0.19"></rect><rect width="602" height="3" x="-159" y="131.5" rx="1.5" transform="rotate(45, 142, 133)" opacity="0.42"></rect><rect width="75" height="3" x="725.5" y="327.5" rx="1.5" transform="rotate(45, 763, 329)" opacity="0.60"></rect><rect width="147" height="3" x="619.5" y="39.5" rx="1.5" transform="rotate(45, 693, 41)" opacity="0.51"></rect><rect width="660" height="3" x="80" y="740.5" rx="1.5" transform="rotate(45, 410, 742)" opacity="0.65"></rect><rect width="429" height="3" x="547.5" y="30.5" rx="1.5" transform="rotate(45, 762, 32)" opacity="0.77"></rect><rect width="715" height="3" x="-117.5" y="515.5" rx="1.5" transform="rotate(45, 240, 517)" opacity="0.59"></rect><rect width="108" height="3" x="29" y="752.5" rx="1.5" transform="rotate(45, 83, 754)" opacity="0.41"></rect><rect width="262" height="3" x="144" y="625.5" rx="1.5" transform="rotate(45, 275, 627)" opacity="0.24"></rect><rect width="160" height="3" x="618" y="606.5" rx="1.5" transform="rotate(45, 698, 608)" opacity="0.40"></rect><rect width="370" height="3" x="28" y="209.5" rx="1.5" transform="rotate(45, 213, 211)" opacity="0.71"></rect><rect width="446" height="3" x="249" y="556.5" rx="1.5" transform="rotate(45, 472, 558)" opacity="0.97"></rect><rect width="240" height="3" x="424" y="156.5" rx="1.5" transform="rotate(45, 544, 158)" opacity="0.93"></rect><rect width="519" height="3" x="-5.5" y="307.5" rx="1.5" transform="rotate(45, 254, 309)" opacity="0.91"></rect><rect width="149" height="3" x="693.5" y="574.5" rx="1.5" transform="rotate(45, 768, 576)" opacity="0.33"></rect><rect width="336" height="3" x="-76" y="307.5" rx="1.5" transform="rotate(45, 92, 309)" opacity="0.69"></rect><rect width="555" height="3" x="62.5" y="430.5" rx="1.5" transform="rotate(45, 340, 432)" opacity="0.88"></rect><rect width="215" height="3" x="586.5" y="275.5" rx="1.5" transform="rotate(45, 694, 277)" opacity="0.33"></rect><rect width="133" height="3" x="306.5" y="190.5" rx="1.5" transform="rotate(45, 373, 192)" opacity="0.35"></rect><rect width="502" height="3" x="511" y="478.5" rx="1.5" transform="rotate(45, 762, 480)" opacity="0.64"></rect><rect width="175" height="3" x="-53.5" y="397.5" rx="1.5" transform="rotate(45, 34, 399)" opacity="0.87"></rect><rect width="324" height="3" x="473" y="21.5" rx="1.5" transform="rotate(45, 635, 23)" opacity="0.78"></rect><rect width="673" height="3" x="-175.5" y="579.5" rx="1.5" transform="rotate(45, 161, 581)" opacity="0.26"></rect><rect width="145" height="3" x="439.5" y="758.5" rx="1.5" transform="rotate(45, 512, 760)" opacity="0.27"></rect><rect width="394" height="3" x="454" y="730.5" rx="1.5" transform="rotate(45, 651, 732)" opacity="0.74"></rect><rect width="309" height="3" x="-130.5" y="327.5" rx="1.5" transform="rotate(45, 24, 329)" opacity="0.91"></rect><rect width="119" height="3" x="162.5" y="692.5" rx="1.5" transform="rotate(45, 222, 694)" opacity="0.36"></rect><rect width="595" height="3" x="-62.5" y="414.5" rx="1.5" transform="rotate(45, 235, 416)" opacity="1.00"></rect><rect width="48" height="3" x="567" y="478.5" rx="1.5" transform="rotate(45, 591, 480)" opacity="0.73"></rect><rect width="333" height="3" x="496.5" y="194.5" rx="1.5" transform="rotate(45, 663, 196)" opacity="0.21"></rect><rect width="678" height="3" x="253" y="373.5" rx="1.5" transform="rotate(45, 592, 375)" opacity="0.42"></rect><rect width="266" height="3" x="192" y="329.5" rx="1.5" transform="rotate(45, 325, 331)" opacity="0.56"></rect><rect width="85" height="3" x="230.5" y="83.5" rx="1.5" transform="rotate(45, 273, 85)" opacity="0.81"></rect><rect width="521" height="3" x="-208.5" y="63.5" rx="1.5" transform="rotate(45, 52, 65)" opacity="0.48"></rect><rect width="157" height="3" x="223.5" y="194.5" rx="1.5" transform="rotate(45, 302, 196)" opacity="0.47"></rect><rect width="189" height="3" x="73.5" y="315.5" rx="1.5" transform="rotate(45, 168, 317)" opacity="0.68"></rect><rect width="232" height="3" x="507" y="580.5" rx="1.5" transform="rotate(45, 623, 582)" opacity="0.44"></rect><rect width="405" height="3" x="352.5" y="602.5" rx="1.5" transform="rotate(45, 555, 604)" opacity="0.11"></rect><rect width="295" height="3" x="275.5" y="492.5" rx="1.5" transform="rotate(45, 423, 494)" opacity="0.52"></rect><rect width="344" height="3" x="282" y="29.5" rx="1.5" transform="rotate(45, 454, 31)" opacity="0.67"></rect><rect width="372" height="3" x="290" y="327.5" rx="1.5" transform="rotate(45, 476, 329)" opacity="0.58"></rect><rect width="401" height="3" x="342.5" y="222.5" rx="1.5" transform="rotate(45, 543, 224)" opacity="0.37"></rect><rect width="301" height="3" x="556.5" y="114.5" rx="1.5" transform="rotate(45, 707, 116)" opacity="0.42"></rect><rect width="319" height="3" x="-134.5" y="733.5" rx="1.5" transform="rotate(45, 25, 735)" opacity="0.11"></rect><rect width="130" height="3" x="695" y="206.5" rx="1.5" transform="rotate(45, 760, 208)" opacity="0.33"></rect><rect width="305" height="3" x="197.5" y="570.5" rx="1.5" transform="rotate(45, 350, 572)" opacity="0.51"></rect><rect width="455" height="3" x="251.5" y="654.5" rx="1.5" transform="rotate(45, 479, 656)" opacity="0.49"></rect><rect width="530" height="3" x="-209" y="536.5" rx="1.5" transform="rotate(45, 56, 538)" opacity="0.56"></rect><rect width="225" height="3" x="-67.5" y="463.5" rx="1.5" transform="rotate(45, 45, 465)" opacity="0.83"></rect><rect width="537" height="3" x="445.5" y="710.5" rx="1.5" transform="rotate(45, 714, 712)" opacity="0.42"></rect><rect width="57" height="3" x="483.5" y="83.5" rx="1.5" transform="rotate(45, 512, 85)" opacity="0.83"></rect><rect width="73" height="3" x="341.5" y="644.5" rx="1.5" transform="rotate(45, 378, 646)" opacity="0.49"></rect><rect width="116" height="3" x="644" y="398.5" rx="1.5" transform="rotate(45, 702, 400)" opacity="0.44"></rect><rect width="552" height="3" x="171" y="216.5" rx="1.5" transform="rotate(45, 447, 218)" opacity="0.22"></rect><rect width="396" height="3" x="-154" y="259.5" rx="1.5" transform="rotate(45, 44, 261)" opacity="0.75"></rect><rect width="57" height="3" x="744.5" y="106.5" rx="1.5" transform="rotate(45, 773, 108)" opacity="0.31"></rect><rect width="342" height="3" x="276" y="406.5" rx="1.5" transform="rotate(45, 447, 408)" opacity="0.56"></rect><rect width="262" height="3" x="494" y="132.5" rx="1.5" transform="rotate(45, 625, 134)" opacity="0.14"></rect><rect width="423" height="3" x="544.5" y="762.5" rx="1.5" transform="rotate(45, 756, 764)" opacity="0.20"></rect><rect width="364" height="3" x="224" y="105.5" rx="1.5" transform="rotate(45, 406, 107)" opacity="0.51"></rect><rect width="514" height="3" x="84" y="34.5" rx="1.5" transform="rotate(45, 341, 36)" opacity="0.96"></rect><rect width="167" height="3" x="101.5" y="769.5" rx="1.5" transform="rotate(45, 185, 771)" opacity="0.21"></rect><rect width="623" height="3" x="-3.5" y="747.5" rx="1.5" transform="rotate(45, 308, 749)" opacity="0.67"></rect><rect width="409" height="3" x="473.5" y="504.5" rx="1.5" transform="rotate(45, 678, 506)" opacity="0.86"></rect><rect width="608" height="3" x="-122" y="44.5" rx="1.5" transform="rotate(45, 182, 46)" opacity="0.64"></rect><rect width="292" height="3" x="-44" y="371.5" rx="1.5" transform="rotate(45, 102, 373)" opacity="0.52"></rect><rect width="360" height="3" x="349" y="293.5" rx="1.5" transform="rotate(45, 529, 295)" opacity="0.10"></rect><rect width="363" height="3" x="400.5" y="710.5" rx="1.5" transform="rotate(45, 582, 712)" opacity="0.60"></rect><rect width="117" height="3" x="75.5" y="689.5" rx="1.5" transform="rotate(45, 134, 691)" opacity="0.18"></rect><rect width="243" height="3" x="-47.5" y="196.5" rx="1.5" transform="rotate(45, 74, 198)" opacity="0.26"></rect><rect width="433" height="3" x="298.5" y="450.5" rx="1.5" transform="rotate(45, 515, 452)" opacity="0.24"></rect><rect width="41" height="3" x="745.5" y="662.5" rx="1.5" transform="rotate(45, 766, 664)" opacity="0.78"></rect><rect width="284" height="3" x="-87" y="627.5" rx="1.5" transform="rotate(45, 55, 629)" opacity="0.31"></rect><rect width="106" height="3" x="536" y="52.5" rx="1.5" transform="rotate(45, 589, 54)" opacity="0.70"></rect></g></svg>