<svg xmlns="http://www.w3.org/2000/svg" version="1.1" xmlns:xlink="http://www.w3.org/1999/xlink" xmlns:svgjs="http://svgjs.dev/svgjs" viewBox="0 0 800 800"><defs><linearGradient x1="50%" y1="0%" x2="50%" y2="100%" id="gggyrate-grad"><stop stop-color="hsl(184, 74%, 44%)" stop-opacity="1" offset="0%"></stop><stop stop-color="hsl(332, 87%, 70%)" stop-opacity="1" offset="100%"></stop></linearGradient></defs><g stroke-width="5" stroke="url(#gggyrate-grad)" fill="none"><path d="M356.81422956313236 -222.85496667994232C383.53756542518863 -238.28091297911257 416.4623735396551 -238.28091297911257 443.1857094017114 -222.85064810595043L917.8142654106705 51.17582740391708C944.5376012727268 66.60177370308725 961.00000532996 95.11731777179409 961.00000532996 125.97352894412666V674.0264799638614C961.00000532996 704.8826911361939 944.5376012727268 733.3982352049006 917.8142654106705 748.8285000780629L443.1857094017114 1022.8549755879303C416.4623735396551 1038.2809218871005 383.53756542518863 1038.2809218871005 356.81422956313236 1022.8506570139384L-117.81432644582662 748.824181504071C-144.53766230788295 733.3982352049006 -161.00006636511614 704.8826911361939 -161.00006636511614 674.0264799638614V125.97352894412666C-161.00006636511614 95.11731777179409 -144.53766230788295 66.60177370308725 -117.81432644582662 51.17150882992519L356.81422956313236 -222.85496667994232Z " transform="rotate(68, 400, 400)" opacity="0.05"></path><path d="M358.08439838428797 -204.53569756860674C384.02175377981314 -219.50793956486018 415.9781851850306 -219.50793956486018 441.9155405805558 -204.5315060114969L902.5844331774867 61.435367277492105C928.5217885730117 76.40760927374549 944.5000042756205 104.08446086984327 944.5000042756205 134.0331364194601V665.966882997438C944.5000042756205 695.9155585470548 928.5217885730117 723.5924101431528 902.5844331774867 738.5688436965158L441.9155405805558 1004.5357169855047C415.9781851850306 1019.5079589817581 384.02175377981314 1019.5079589817581 358.08439838428797 1004.5315254283948L-102.58449421264288 738.564652139406C-128.52184960816805 723.5924101431528 -144.5000653107768 695.9155585470548 -144.5000653107768 665.966882997438V134.0331364194601C-144.5000653107768 104.08446086984327 -128.52184960816805 76.40760927374549 -102.58449421264288 61.43117572038227L358.08439838428797 -204.53569756860674Z " transform="rotate(66, 400, 400)" opacity="0.08"></path><path d="M359.3545672054436 -186.21645897484922C384.50594213443765 -200.73499666818591 415.4939968304061 -200.73499666818591 440.6453717594002 -186.2123944346215L887.354600944303 71.694876633489C912.5059758732971 86.21341432682561 928.0000032212813 113.05157345031444 928.0000032212813 142.09271337721566V657.9072555134367C928.0000032212813 686.9483954403377 912.5059758732971 713.7865545638265 887.354600944303 728.3091567973906L440.6453717594002 986.2164278655014C415.4939968304061 1000.734965558838 384.50594213443765 1000.734965558838 359.3545672054436 986.2123633252738L-87.35466197945908 728.3050922571633C-112.50603690845321 713.7865545638265 -128.00006425643744 686.9483954403377 -128.00006425643744 657.9072555134367V142.09271337721566C-128.00006425643744 113.05157345031444 -112.50603690845321 86.21341432682561 -87.35466197945908 71.69081209326134L359.3545672054436 -186.21645897484922Z " transform="rotate(64, 400, 400)" opacity="0.11"></path><path d="M360.62473602659907 -167.89718986351363C384.99013048906227 -181.96202325393352 415.0098084757815 -181.96202325393352 439.3752029382447 -167.89325234016803L872.124768711119 81.95441650706402C896.490163173582 96.01924989748386 911.5000021669418 122.01871654836373 911.5000021669418 150.15232085254922V649.8476585470135C911.5000021669418 677.9812628511986 896.490163173582 703.9807295020787 872.124768711119 718.049500415844L439.3752029382447 967.897169263076C415.0098084757815 981.9620026534958 384.99013048906227 981.9620026534958 360.62473602659907 967.8932317397305L-72.12482974627528 718.0455628924983C-96.49022420873837 703.9807295020787 -111.50006320209809 677.9812628511986 -111.50006320209809 649.8476585470135V150.15232085254922C-111.50006320209809 122.01871654836373 -96.49022420873837 96.01924989748386 -72.12482974627528 81.95047898371854L360.62473602659907 -167.89718986351363Z " transform="rotate(62, 400, 400)" opacity="0.14"></path><path d="M361.8949048477547 -149.57789023459986C385.47431884368666 -163.189019322103 414.5256201211571 -163.189019322103 438.1050341170891 -149.57407972813638L856.8949364779353 92.21398689821717C880.4743504738672 105.82511598572034 895.0000011126026 130.98589016399114 895.0000011126026 158.2119588454609V641.7880920981681C895.0000011126026 669.0141607796379 880.4743504738672 694.1749349579086 856.8949364779353 707.7898745518751L438.1050341170891 949.5779411782289C414.5256201211571 963.189070265732 385.47431884368666 963.189070265732 361.8949048477547 949.5741306717655L-56.89499751309154 707.7860640454119C-80.47441150902353 694.1749349579086 -95.00006214775874 669.0141607796379 -95.00006214775874 641.7880920981681V158.2119588454609C-95.00006214775874 130.98589016399114 -80.47441150902353 105.82511598572034 -56.89499751309154 92.2101763917538L361.8949048477547 -149.57789023459986Z " transform="rotate(60, 400, 400)" opacity="0.17"></path><path d="M363.1650736689103 -131.25868215842047C385.95850719831117 -144.41610694300687 414.0414317665326 -144.41610694300687 436.83486529593347 -131.2549986688391L841.6651042447515 102.473465736636C864.4585377741523 115.6308905212224 878.5000000582631 139.95297222688407 878.5000000582631 166.27150528563834V633.7284340965884C878.5000000582631 660.0469671553428 864.4585377741523 684.3690488610046 841.6651042447515 697.530157135172L436.83486529593347 931.2586215406473C414.0414317665326 944.4160463252335 385.95850719831117 944.4160463252335 363.1650736689103 931.2549380510659L-41.66516527990774 697.5264736455908C-64.45859880930868 684.3690488610046 -78.50006109341939 660.0469671553428 -78.50006109341939 633.7284340965884V166.27150528563834C-78.50006109341939 139.95297222688407 -64.45859880930868 115.6308905212224 -41.66516527990774 102.46978224705475L363.1650736689103 -131.25868215842047Z " transform="rotate(58, 400, 400)" opacity="0.19"></path><path d="M364.4352424900658 -112.93939778829582C386.4426955529357 -125.64311826996541 413.5572434119081 -125.64311826996541 435.564696474778 -112.93584131559658L826.4352720115676 112.73302086900014C848.4427250744375 125.4367413506697 861.9999990039237 148.92013058372243 861.9999990039237 174.33112801976097V625.6688523889543C861.9999990039237 651.0798498249928 848.4427250744375 674.5632390580456 826.4352720115676 687.2705160124142L435.564696474778 912.9393781970109C413.5572434119081 925.6430986786806 386.4426955529357 925.6430986786806 364.4352424900658 912.9358217243118L-26.43533304672394 687.2669595397151C-48.44278610959384 674.5632390580456 -62.00006003907998 651.0798498249928 -62.00006003907998 625.6688523889543V174.33112801976097C-62.00006003907998 148.92013058372243 -48.44278610959384 125.4367413506697 -26.43533304672394 112.72946439630095L364.4352424900658 -112.93939778829582Z " transform="rotate(56, 400, 400)" opacity="0.22"></path><path d="M365.7054113112214 -94.62009815938205C386.9268839075602 -106.8701143381349 413.07305505728357 -106.8701143381349 434.29452765362237 -94.61666870356493L811.2054397783841 122.99259126015329C832.4269123747226 135.24260743890608 845.4999979495844 157.88730419934973 845.4999979495844 182.39076601267266V617.6092859401091C845.4999979495844 642.112747753432 832.4269123747226 664.7574445138756 811.2054397783841 677.0108901484455L434.29452765362237 894.6201501121636C413.07305505728357 906.8701662909166 386.9268839075602 906.8701662909166 365.7054113112214 894.6167206563466L-11.205500813540198 677.0074606926285C-32.426973409879 664.7574445138756 -45.50005898474063 642.112747753432 -45.50005898474063 617.6092859401091V182.39076601267266C-45.50005898474063 157.88730419934973 -32.426973409879 135.24260743890608 -11.205500813540198 122.98916180433628L365.7054113112214 -94.62009815938205Z " transform="rotate(54, 400, 400)" opacity="0.25"></path><path d="M366.975580132377 -76.30089008320272C387.4110722621847 -88.09720195903876 412.58886670265906 -88.09720195903876 433.02435883246676 -76.29758764426765L795.9756075452001 133.25207009857206C816.4110996750078 145.04838197440813 828.999996895245 166.85438626224277 828.999996895245 190.45031245285008V609.5496279385295C828.999996895245 633.1455541291367 816.4110996750078 654.9515584169714 795.9756075452001 666.7511727317424L433.02435883246676 876.3008304745822C412.58886670265906 888.0971423504184 387.4110722621847 888.0971423504184 366.975580132377 876.2975280356472L4.024331419643602 666.7478702928075C-16.411160710164154 654.9515584169714 -29.000057930401283 633.1455541291367 -29.000057930401283 609.5496279385295V190.45031245285008C-29.000057930401283 166.85438626224277 -16.411160710164154 145.04838197440813 4.024331419643602 133.24876765963717L366.975580132377 -76.30089008320272Z " transform="rotate(52, 400, 400)" opacity="0.28"></path><path d="M368.2457489535325 -57.98160571307801C387.8952606168093 -69.3242132859973 412.10467834803444 -69.3242132859973 431.75419001131127 -57.97843029102512L780.7457753120163 143.5116252309362C800.395286975293 154.8542328038555 812.4999958409057 175.82154461908112 812.4999958409057 198.5099351869726V601.4900462308952C812.4999958409057 624.1784367987868 800.395286975293 645.1457486140125 780.7457753120163 656.4915316089846L431.75419001131127 857.9815871309461C412.10467834803444 869.324194703865 387.8952606168093 869.324194703865 368.2457489535325 857.9784117088932L19.254163652827344 656.4883561869317C-0.395348010449311 645.1457486140125 -12.500056876061933 624.1784367987868 -12.500056876061933 601.4900462308952V198.5099351869726C-12.500056876061933 175.82154461908112 -0.395348010449311 154.8542328038555 19.254163652827344 143.50844980888337L368.2457489535325 -57.98160571307801Z " transform="rotate(50, 400, 400)" opacity="0.31"></path><path d="M369.5159177746882 -39.662321342953305C388.3794489714337 -50.55122461295582 411.62048999341005 -50.55122461295582 430.48402119015554 -39.65927293778253L765.5159430788326 153.77118036330035C784.3794742755781 164.6600836333028 795.9999947865663 184.78870297591948 795.9999947865663 206.56955792109528V593.430464523261C795.9999947865663 615.2113194684368 784.3794742755781 635.3399388110535 765.5159430788326 646.2318904862267L430.48402119015554 839.6623437873095C411.62048999341005 850.5512470573121 388.3794489714337 850.5512470573121 369.5159177746882 839.6592953821389L34.483995886011144 646.228842081056C15.620464689265532 635.3399388110535 3.999944178277417 615.2113194684368 3.999944178277417 593.430464523261V206.56955792109528C3.999944178277417 184.78870297591948 15.620464689265532 164.6600836333028 34.483995886011144 153.76813195812963L369.5159177746882 -39.662321342953305Z " transform="rotate(48, 400, 400)" opacity="0.34"></path><path d="M370.7860865958437 -21.343098007984906C388.8636373260583 -31.778296975070617 411.1363016387854 -31.778296975070617 429.21385236900005 -21.34017661969625L750.2861108456489 164.03067446050818C768.3636615758634 174.46587342759392 779.499993732227 193.75580029760147 779.499993732227 214.62911962006172V585.3708217804706C779.499993732227 606.2441411029307 768.3636615758634 625.5340679729383 750.2861108456489 635.9721883283127L429.21385236900005 821.3430394085171C411.1363016387854 831.7782383756028 388.8636373260583 831.7782383756028 370.7860865958437 821.3401180202286L49.71382811919494 635.9692669400241C31.636277388980375 625.5340679729383 20.499945232616767 606.2441411029307 20.499945232616767 585.3708217804706V214.62911962006172C20.499945232616767 193.75580029760147 31.636277388980375 174.46587342759392 49.71382811919494 164.02775307221958L370.7860865958437 -21.343098007984906Z " transform="rotate(46, 400, 400)" opacity="0.37"></path><path d="M372.05631645215544 -3.0238136378602007C389.34788671583897 -13.005308302029164 410.6521743193173 -13.005308302029164 427.9437445830008 -3.0210192664536635L735.0563396476213 174.29022959287227C752.3479099113048 184.27172425704129 763.0000537130439 202.72295865443982 763.0000537130439 222.68874235418434V577.3112400728363C763.0000537130439 597.2770237725808 752.3479099113048 615.7282581699794 735.0563396476213 625.7125472055549L427.9437445830008 803.0237960648808C410.6521743193173 813.0052907290496 389.34788671583897 813.0052907290496 372.05631645215544 803.0210016934743L64.94372138753494 625.7097528341484C47.65215112385147 615.7282581699794 37.00000732211237 597.2770237725808 37.00000732211237 577.3112400728363V222.68874235418434C37.00000732211237 202.72295865443982 47.65215112385147 184.27172425704129 64.94372138753494 174.28743522146584L372.05631645215544 -3.0238136378602007Z " transform="rotate(44, 400, 400)" opacity="0.40"></path><path d="M373.32648527331116 15.295470732264448C389.8320750704635 5.76768037101229 410.1679859646928 5.76768037101229 426.6735757618451 15.298138086788924L719.8265074144375 184.5497847252364C736.3320972115899 194.07757508648865 746.5000526587046 211.69011701127818 746.5000526587046 230.74836508830708V569.251658365202C746.5000526587046 588.309906442231 736.3320972115899 605.9224483670205 719.8265074144375 615.4529060827971L426.6735757618451 784.7045527212445C410.1679859646928 794.2323430824968 389.8320750704635 794.2323430824968 373.32648527331116 784.70188536672L80.17355362071874 615.4502387282727C63.66796382356631 605.9224483670205 53.50000837645172 588.309906442231 53.50000837645172 569.251658365202V230.74836508830708C53.50000837645172 211.69011701127818 63.66796382356631 194.07757508648865 80.17355362071874 184.54711737071204L373.32648527331116 15.295470732264448Z " transform="rotate(42, 400, 400)" opacity="0.42"></path><path d="M374.59665409446666 33.61472458481103C390.316263425088 24.540638526475618 409.68379761006827 24.540638526475618 425.4034069406896 33.61726492245333L704.5966751812537 194.80930934002242C720.3162845118751 203.88339539835783 730.0000516043651 220.6572448505383 730.0000516043651 238.80795730485158V561.1920461399895C730.0000516043651 579.3427585943028 720.3162845118751 596.1166080464833 704.5966751812537 605.1932344424611L425.4034069406896 766.3852788600301C409.68379761006827 775.4593649183655 390.316263425088 775.4593649183655 374.59665409446666 766.3827385223879L95.40338585390253 605.1906941048188C79.68377652328115 596.1166080464833 70.00000943079107 579.3427585943028 70.00000943079107 561.1920461399895V238.80795730485158C70.00000943079107 220.6572448505383 79.68377652328115 203.88339539835783 95.40338585390253 194.80676900238012L374.59665409446666 33.61472458481103Z " transform="rotate(40, 400, 400)" opacity="0.45"></path><path d="M375.86682291562227 51.93397843735761C390.8004517797125 43.31359668193895 409.19960925544376 43.31359668193895 424.133238119534 51.93639175811779L689.3668429480699 205.06883395480838C704.3004718121601 213.68921571022702 713.5000505500258 229.62437268979852 713.5000505500258 246.86754952139609V553.1324339147773C713.5000505500258 570.3756107463748 704.3004718121601 586.3107677259463 689.3668429480699 594.9335628021252L424.133238119534 748.0660049988157C409.19960925544376 756.6863867542344 390.8004517797125 756.6863867542344 375.86682291562227 748.0635916780556L110.63321808708628 594.9311494813651C95.69958922299605 586.3107677259463 86.50001048513042 570.3756107463748 86.50001048513042 553.1324339147773V246.86754952139609C86.50001048513042 229.62437268979852 95.69958922299605 213.68921571022702 110.63321808708628 205.06642063404826L375.86682291562227 51.93397843735761Z " transform="rotate(38, 400, 400)" opacity="0.48"></path><path d="M377.1369917367779 70.25326280748226C391.284640134337 62.0865853549804 408.71542090081925 62.0865853549804 422.8630692983784 70.25554911136038L674.1370107148862 215.32838908717247C688.2846591124454 223.49506653967438 697.0000494956864 238.59153104663687 697.0000494956864 254.92717225551877V545.0728522071431C697.0000494956864 561.408493416025 688.2846591124454 576.5049579229874 674.1370107148862 584.6739216793674L422.8630692983784 729.7467616551794C408.71542090081925 737.9134391076814 391.284640134337 737.9134391076814 377.1369917367779 729.7444753513015L125.86305032027008 584.6716353754892C111.7154019227109 576.5049579229874 103.00001153946977 561.408493416025 103.00001153946977 545.0728522071431V254.92717225551877C103.00001153946977 238.59153104663687 111.7154019227109 223.49506653967438 125.86305032027008 215.32610278329446L377.1369917367779 70.25326280748226Z " transform="rotate(36, 400, 400)" opacity="0.51"></path><path d="M378.40716055793337 88.57251666002884C391.7688284889615 80.85954351044373 408.23123254619475 80.85954351044373 421.5929004772229 88.57467594702479L658.9071784817024 225.58791370195854C672.2688464127306 233.30088685154362 680.5000484413472 247.55865888589705 680.5000484413472 262.9867644720633V537.0132399819307C680.5000484413472 552.441345568097 672.2688464127306 566.6991176024503 658.9071784817024 574.4142500390315L421.5929004772229 711.4274877939652C408.23123254619475 719.1404609435502 391.7688284889615 719.1404609435502 378.40716055793337 711.4253285069692L141.09288255345388 574.4120907520355C127.73121462242574 566.6991176024503 119.50001259380912 552.441345568097 119.50001259380912 537.0132399819307V262.9867644720633C119.50001259380912 247.55865888589705 127.73121462242574 233.30088685154362 141.09288255345388 225.5857544149626L378.40716055793337 88.57251666002884Z " transform="rotate(34, 400, 400)" opacity="0.54"></path><path d="M379.677329379089 106.89177051257536C392.253016843586 99.63250166590706 407.74704419157024 99.63250166590706 420.3227316560673 106.89380278268925L643.6773462485187 235.8474383167445C656.2530337130157 243.1067071634128 664.0000473870078 256.5257867251572 664.0000473870078 271.04635668860783V528.9536277567183C664.0000473870078 543.4741977201688 656.2530337130157 556.8932772819132 643.6773462485187 564.1545783986953L420.3227316560673 693.1082139327507C407.74704419157024 700.367482779419 392.253016843586 700.367482779419 379.677329379089 693.1061816626369L156.32271478663762 564.1525461285817C143.74702732214058 556.8932772819132 136.00001364814847 543.4741977201688 136.00001364814847 528.9536277567183V271.04635668860783C136.00001364814847 256.5257867251572 143.74702732214058 243.1067071634128 156.32271478663762 235.84540604663067L379.677329379089 106.89177051257536Z " transform="rotate(32, 400, 400)" opacity="0.57"></path><path d="M380.94748294145546 125.21105488270007C392.73718993942146 118.40549033894851 407.26284057815667 118.40549033894851 419.0525475761226 125.21296013593178L628.4474987565458 246.1069934491086C640.2372057545117 252.91255799286017 647.5000310738794 265.4929450819956 647.5000310738794 279.10597942273046V520.8940460490841C647.5000310738794 534.507080389819 640.2372057545117 547.0874674789543 628.4474987565458 553.8949372759375L419.0525475761226 674.7889705891145C407.26284057815667 681.594535132866 392.73718993942146 681.594535132866 380.94748294145546 674.7870653358827L171.55253176103236 553.8930320227059C159.76282476306636 547.0874674789543 152.49999944369875 534.507080389819 152.49999944369875 520.8940460490841V279.10597942273046C152.49999944369875 265.4929450819956 159.76282476306636 252.91255799286017 171.55253176103236 246.10508819587687L380.94748294145546 125.21105488270007Z " transform="rotate(30, 400, 400)" opacity="0.60"></path><path d="M382.21763650382195 143.53030873524665C393.2213630352569 137.17844849441184 406.7786369647431 137.17844849441184 417.78236349617805 143.53208697159624L613.2176512645729 256.3665180638946C624.2213777960078 262.7183783047294 631.0000147607509 274.46007292125574 631.0000147607509 287.165571639275V512.8344338238717C631.0000147607509 525.539932541891 624.2213777960078 537.2816271584173 613.2176512645729 543.6352656356016L417.78236349617805 656.4696967279C406.7786369647431 662.8215569687349 393.2213630352569 662.8215569687349 382.21763650382195 656.4679184915504L186.7823487354271 543.6334873992521C175.77862220399214 537.2816271584173 168.99998523924904 525.539932541891 168.99998523924904 512.8344338238717V287.165571639275C168.99998523924904 274.46007292125574 175.77862220399214 262.7183783047294 186.7823487354271 256.364739827545L382.21763650382195 143.53030873524665Z " transform="rotate(28, 400, 400)" opacity="0.63"></path><path d="M383.48780532497756 161.84956258779317C393.7055513898814 155.95140664987517 406.2944486101186 155.95140664987517 416.51219467502244 161.8512138072607L597.9878190313891 266.62604267868056C608.205565096293 272.5241986165986 614.5000137064116 283.4272007605159 614.5000137064116 295.2251638558196V504.7748215986593C614.5000137064116 516.5727846939628 608.205565096293 527.4757868378802 597.9878190313891 533.3755939952657L416.51219467502244 638.1504228666856C406.2944486101186 644.0485788046037 393.7055513898814 644.0485788046037 383.48780532497756 638.1487716472182L202.01218096861083 533.3739427757982C191.79443490370699 527.4757868378802 185.4999862935884 516.5727846939628 185.4999862935884 504.7748215986593V295.2251638558196C185.4999862935884 283.4272007605159 191.79443490370699 272.5241986165986 202.01218096861083 266.62439145921314L383.48780532497756 161.84956258779317Z " transform="rotate(26, 400, 400)" opacity="0.65"></path><path d="M384.75797414613317 180.16884695791788C394.1897397445059 174.72439532291662 405.8102602554941 174.72439532291662 415.24202585386683 180.17037116050324L582.7579867982054 276.8855978110447C592.1897523965781 282.3300494460459 598.0000126520722 292.39435911735427 598.0000126520722 303.2847865899422V496.715239891025C598.0000126520722 507.60566736361295 592.1897523965781 517.6699770349212 582.7579867982054 523.1159528725079L415.24202585386683 619.8311795230493C405.8102602554941 625.2756311580506 394.1897397445059 625.2756311580506 384.75797414613317 619.829655320464L217.24201320179463 523.1144286699225C207.81024760342183 517.6699770349212 201.99998734792774 507.60566736361295 201.99998734792774 496.715239891025V303.2847865899422C201.99998734792774 292.39435911735427 207.81024760342183 282.3300494460459 217.24201320179463 276.88407360845935L384.75797414613317 180.16884695791788Z " transform="rotate(24, 400, 400)" opacity="0.68"></path><path d="M386.02814296728866 198.48808555167534C394.6739280991304 193.4973382195909 405.3260719008696 193.4973382195909 413.97185703271134 198.48948273737864L567.5281545650216 287.1451071670416C576.1739396968633 292.13585449912614 581.500011597733 301.3614716978254 581.500011597733 311.34436354769764V488.6556124070237C581.500011597733 498.6385042568959 576.1739396968633 507.8641214555952 567.5281545650216 512.856265973383L413.97185703271134 601.5118904030459C405.3260719008696 606.5026377351303 394.6739280991304 606.5026377351303 386.02814296728866 601.5104932173426L232.47184543497843 512.8548687876796C223.82606030313667 507.8641214555952 218.4999884022671 498.6385042568959 218.4999884022671 488.6556124070237V311.34436354769764C218.4999884022671 301.3614716978254 223.82606030313667 292.13585449912614 232.47184543497843 287.14370998133836L386.02814296728866 198.48808555167534Z " transform="rotate(22, 400, 400)" opacity="0.71"></path><path d="M387.29831178844427 216.80735466301098C395.15811645375493 212.27031163384328 404.84188354624507 212.27031163384328 412.70168821155573 216.80862483183216L552.2983223318378 297.4046470406167C560.1581269971484 301.9416900697844 565.0000105433935 310.3286147958746 565.0000105433935 319.40397102303126V480.59601544060024C565.0000105433935 489.67137166775683 560.1581269971484 498.05829639384706 552.2983223318378 502.596609591836L412.70168821155573 583.1926318006206C404.84188354624507 587.7296748297882 395.15811645375493 587.7296748297882 387.29831178844427 583.1913616317994L247.70167766816218 502.5953394230148C239.84187300285151 498.05829639384706 234.99998945660644 489.67137166775683 234.99998945660644 480.59601544060024V319.40397102303126C234.99998945660644 310.3286147958746 239.84187300285151 301.9416900697844 247.70167766816218 297.40337687179556L387.29831178844427 216.80735466301098Z " transform="rotate(20, 400, 400)" opacity="0.74"></path><path d="M388.5684806095999 235.12662377434663C395.64230480837944 231.04328504809567 404.35769519162056 231.04328504809567 411.4315193904001 235.12776692628563L537.068490098654 307.6641869141917C544.1423142974336 311.74752564044263 548.5000094890542 319.2957578939239 548.5000094890542 327.4635784983649V472.536418474177C548.5000094890542 480.70423907861795 544.1423142974336 488.25247133209916 537.068490098654 492.33695321028915L411.4315193904001 564.8733731981952C404.35769519162056 568.9567119244462 395.64230480837944 568.9567119244462 388.5684806095999 564.8722300462562L262.931509901346 492.33581005835003C255.85768570256636 488.25247133209916 251.49999051094585 480.70423907861795 251.49999051094585 472.536418474177V327.4635784983649C251.49999051094585 319.2957578939239 255.85768570256636 311.74752564044263 262.931509901346 307.6630437622527L388.5684806095999 235.12662377434663Z " transform="rotate(18, 400, 400)" opacity="0.77"></path><path d="M389.8386494307554 253.4458928856822C396.12649316300394 249.81625846234806 403.87350683699606 249.81625846234806 410.1613505692446 253.44690902073916L521.8386578654703 317.9237267877668C528.1265015977187 321.55336121110093 532.0000084347148 328.26290099197314 532.0000084347148 335.52318597369845V464.4768215077537C532.0000084347148 471.73710648947895 528.1265015977187 478.44664627035115 521.8386578654703 482.0772968287422L410.1613505692446 546.5541145957699C403.87350683699606 550.183749019104 396.12649316300394 550.183749019104 389.8386494307554 546.553098460713L278.1613421345298 482.07628069368536C271.8734984022812 478.44664627035115 267.9999915652852 471.73710648947895 267.9999915652852 464.4768215077537V335.52318597369845C267.9999915652852 328.26290099197314 271.8734984022812 321.55336121110093 278.1613421345298 317.92271065270984L389.8386494307554 253.4458928856822Z " transform="rotate(16, 400, 400)" opacity="0.80"></path><path d="M391.108818251911 271.76513147943973C396.61068151762845 268.58920135902235 403.38931848237155 268.58920135902235 408.891181748089 271.76602059761456L506.6088256322864 328.1832361437637C512.1106888980039 331.3591662641811 515.5000073803755 337.23001357244425 515.5000073803755 343.5827629314539V456.41719402375224C515.5000073803755 462.7699433827619 512.1106888980039 468.6407906910251 506.6088256322864 471.8176099296172L408.891181748089 528.2348254757665C403.38931848237155 531.4107555961839 396.61068151762845 531.4107555961839 391.108818251911 528.2339363575916L293.3911743677135 471.81672081144245C287.88931110199604 468.6407906910251 284.49999261962455 462.7699433827619 284.49999261962455 456.41719402375224V343.5827629314539C284.49999261962455 337.23001357244425 287.88931110199604 331.3591662641811 293.3911743677135 328.1823470255889L391.108818251911 271.76513147943973Z " transform="rotate(14, 400, 400)" opacity="0.83"></path><path d="M392.3789870730666 290.08443110835344C397.09486987225296 287.36220529085284 402.90513012774704 287.36220529085284 407.6210129269334 290.08519320964615L491.3789933991027 338.4428065349169C496.09487619828906 341.1650323524175 499.0000063260361 346.19718718807167 499.0000063260361 351.64240092436563V448.35762757490704C499.0000063260361 453.802841311201 496.09487619828906 458.83499614685513 491.3789933991027 461.5579840656485L407.6210129269334 509.9155973909192C402.90513012774704 512.6378232084198 397.09486987225296 512.6378232084198 392.3789870730666 509.9148352896265L308.6210066008973 461.5572219643558C303.90512380171094 458.83499614685513 300.9999936739639 453.802841311201 300.9999936739639 448.35762757490704V351.64240092436563C300.9999936739639 346.19718718807167 303.90512380171094 341.1650323524175 308.6210066008973 338.4420444336242L392.3789870730666 290.08443110835344Z " transform="rotate(12, 400, 400)" opacity="0.86"></path><path d="M393.64915589422213 308.4036773315055C397.57905822687746 306.1351558169216 402.42094177312254 306.1351558169216 406.35084410577787 308.4043124159161L476.1491611659189 348.7023235203083C480.0790634985742 350.9708450348922 482.50000527169675 355.1643073979373 482.50000527169675 359.7019855115156V440.2980077203001C482.50000527169675 444.8356858338784 480.0790634985742 449.02914819692353 476.1491611659189 451.298304795918L406.35084410577787 491.5963159003103C402.42094177312254 493.8648374148941 397.57905822687746 493.8648374148941 393.64915589422213 491.5956808158997L323.8508388340811 451.2976697115074C319.9209365014258 449.02914819692353 317.49999472830325 444.8356858338784 317.49999472830325 440.2980077203001V359.7019855115156C317.49999472830325 355.1643073979373 319.9209365014258 350.9708450348922 323.8508388340811 348.7016884358978L393.64915589422213 308.4036773315055Z " transform="rotate(10, 400, 400)" opacity="0.88"></path><path d="M394.9193247153777 326.72294644284113C398.06324658150197 324.90812923117403 401.93675341849803 324.90812923117403 405.0806752846223 326.7234545103696L460.91932893273514 358.9618633938834C464.06325079885937 360.7766806055505 466.0000042173574 364.13145049598654 466.0000042173574 367.7615929868492V432.23841075387685C466.0000042173574 435.8685532447395 464.06325079885937 439.2233231351756 460.91932893273514 441.0386484143711L405.0806752846223 473.27705729788494C401.93675341849803 475.091874509552 398.06324658150197 475.091874509552 394.9193247153777 473.2765492303565L339.08067106726486 441.0381403468427C335.93674920114063 439.2233231351756 333.9999957826426 435.8685532447395 333.9999957826426 432.23841075387685V367.7615929868492C333.9999957826426 364.13145049598654 335.93674920114063 360.7766806055505 339.08067106726486 358.9613553263549L394.9193247153777 326.72294644284113Z " transform="rotate(8, 400, 400)" opacity="0.91"></path><path d="M396.1894935365333 345.0422155541767C398.5474349361265 343.68110264542645 401.4525650638735 343.68110264542645 403.8105064634667 345.0425966048231L445.68949669955134 369.2214032674584C448.04743809914453 370.58251617620874 449.50000316301805 373.09859359403583 449.50000316301805 375.8212004621828V424.1788137874535C449.50000316301805 426.90142065560053 448.04743809914453 429.41749807342757 445.68949669955134 430.77899203282425L403.8105064634667 454.9577986954596C401.4525650638735 456.3189116042099 398.5474349361265 456.3189116042099 396.1894935365333 454.9574176448133L354.31050330044866 430.7786109821779C351.95256190085547 429.41749807342757 350.49999683698195 426.90142065560053 350.49999683698195 424.1788137874535V375.8212004621828C350.49999683698195 373.09859359403583 351.95256190085547 370.58251617620874 354.31050330044866 369.2210222168121L396.1894935365333 345.0422155541767Z " transform="rotate(6, 400, 400)" opacity="0.94"></path><path d="M397.45966235768884 363.3614694067233C399.031623290751 362.45406080088975 400.968376709249 362.45406080088975 402.54033764231116 363.3617234404875L430.45966446636754 379.48092788224443C432.0316253994297 380.388336488078 433.0000021086787 382.065721433296 433.0000021086787 383.88079267872735V416.11920156224113C433.0000021086787 417.93427280767247 432.0316253994297 419.61165775289055 430.45966446636754 420.5193203924883L402.54033764231116 436.63852483424523C400.968376709249 437.5459334400787 399.031623290751 437.5459334400787 397.45966235768884 436.638270800481L369.54033553363246 420.51906635872405C367.9683746005703 419.61165775289055 366.9999978913213 417.93427280767247 366.9999978913213 416.11920156224113V383.88079267872735C366.9999978913213 382.065721433296 367.9683746005703 380.388336488078 369.54033553363246 379.4806738484802L397.45966235768884 363.3614694067233Z " transform="rotate(4, 400, 400)" opacity="0.97"></path><path d="M398.72983117884445 381.6807385180589C399.5158116453755 381.2270342151421 400.4841883546245 381.2270342151421 401.27016882115555 381.68086553494106L415.2298322331838 389.74046775581945C416.01581269971484 390.1941720587362 416.50000105433935 391.0328645313453 416.50000105433935 391.9404001540609V408.05960459581786C416.50000105433935 408.9671402185335 416.01581269971484 409.80583269114254 415.2298322331838 410.25966401094144L401.27016882115555 418.3192662318199C400.4841883546245 418.77297053473666 399.5158116453755 418.77297053473666 398.72983117884445 418.31913921493776L384.7701677668162 410.2595369940593C383.98418730028516 409.80583269114254 383.49999894566065 408.9671402185335 383.49999894566065 408.05960459581786V391.9404001540609C383.49999894566065 391.0328645313453 383.98418730028516 390.1941720587362 384.7701677668162 389.7403407389374L398.72983117884445 381.6807385180589Z " transform="rotate(2, 400, 400)" opacity="1.00"></path></g></svg>