<svg xmlns="http://www.w3.org/2000/svg" version="1.1" xmlns:xlink="http://www.w3.org/1999/xlink" xmlns:svgjs="http://svgjs.dev/svgjs" viewBox="0 0 800 800"><circle r="15" cx="97" cy="244" stroke-width="2" stroke="hsl(301, 50%, 50%)" fill="none" opacity="0.47"></circle><circle r="10" cx="719" cy="18" fill="hsl(219, 50%, 50%)" opacity="0.36"></circle><circle r="10.5" cx="117" cy="609" stroke-width="2" stroke="hsl(301, 50%, 50%)" fill="none" opacity="0.46"></circle><circle r="15.5" cx="157" cy="655" fill="hsl(298, 50%, 50%)" opacity="0.79"></circle><circle r="17" cx="656" cy="102" fill="hsl(270, 50%, 50%)" opacity="0.91"></circle><circle r="14.5" cx="500" cy="106" stroke-width="2" stroke="hsl(236, 50%, 50%)" fill="none" opacity="0.30"></circle><circle r="4.5" cx="790" cy="88" stroke-width="2" stroke="hsl(153, 50%, 50%)" fill="none" opacity="0.56"></circle><circle r="13.5" cx="768" cy="482" stroke-width="2" stroke="hsl(175, 50%, 50%)" fill="none" opacity="0.48"></circle><circle r="14" cx="603" cy="329" fill="hsl(294, 50%, 50%)" opacity="0.55"></circle><circle r="7.5" cx="566" cy="686" fill="hsl(281, 50%, 50%)" opacity="0.83"></circle><circle r="11" cx="594" cy="219" stroke-width="2" stroke="hsl(291, 50%, 50%)" fill="none" opacity="0.85"></circle><circle r="15" cx="78" cy="707" stroke-width="2" stroke="hsl(299, 50%, 50%)" fill="none" opacity="0.55"></circle><circle r="14.5" cx="204" cy="552" stroke-width="2" stroke="hsl(292, 50%, 50%)" fill="none" opacity="0.86"></circle><circle r="18" cx="561" cy="542" fill="hsl(276, 50%, 50%)" opacity="0.77"></circle><circle r="13" cx="240" cy="291" fill="hsl(290, 50%, 50%)" opacity="0.96"></circle><circle r="9.5" cx="384" cy="65" stroke-width="2" stroke="hsl(183, 50%, 50%)" fill="none" opacity="0.35"></circle><circle r="9.5" cx="70" cy="623" stroke-width="2" stroke="hsl(296, 50%, 50%)" fill="none" opacity="0.15"></circle><circle r="17" cx="215" cy="470" fill="hsl(291, 50%, 50%)" opacity="0.23"></circle><circle r="13" cx="201" cy="715" fill="hsl(292, 50%, 50%)" opacity="0.31"></circle><circle r="12.5" cx="571" cy="361" fill="hsl(281, 50%, 50%)" opacity="0.34"></circle><circle r="10.5" cx="60" cy="503" stroke-width="2" stroke="hsl(292, 50%, 50%)" fill="none" opacity="0.11"></circle><circle r="14" cx="273" cy="608" fill="hsl(292, 50%, 50%)" opacity="0.25"></circle><circle r="16" cx="92" cy="151" fill="hsl(332, 50%, 50%)" opacity="0.56"></circle><circle r="11" cx="707" cy="516" fill="hsl(256, 50%, 50%)" opacity="0.70"></circle><circle r="11.5" cx="48" cy="468" stroke-width="2" stroke="hsl(287, 50%, 50%)" fill="none" opacity="0.47"></circle><circle r="11.5" cx="274" cy="332" fill="hsl(292, 50%, 50%)" opacity="0.68"></circle><circle r="11.5" cx="328" cy="690" fill="hsl(294, 50%, 50%)" opacity="0.25"></circle><circle r="14" cx="200" cy="415" fill="hsl(292, 50%, 50%)" opacity="0.86"></circle><circle r="11.5" cx="51" cy="595" fill="hsl(292, 50%, 50%)" opacity="0.56"></circle><circle r="11" cx="82" cy="457" fill="hsl(299, 50%, 50%)" opacity="0.65"></circle><circle r="9.5" cx="734" cy="174" fill="hsl(225, 50%, 50%)" opacity="0.94"></circle><circle r="14" cx="510" cy="197" fill="hsl(258, 50%, 50%)" opacity="0.76"></circle><circle r="12" cx="431" cy="550" fill="hsl(265, 50%, 50%)" opacity="0.79"></circle><circle r="11" cx="773" cy="22" stroke-width="2" stroke="hsl(191, 50%, 50%)" fill="none" opacity="0.12"></circle><circle r="14.5" cx="279" cy="216" stroke-width="2" stroke="hsl(292, 50%, 50%)" fill="none" opacity="0.20"></circle><circle r="15" cx="645" cy="777" fill="hsl(295, 50%, 50%)" opacity="0.40"></circle><circle r="13.5" cx="204" cy="373" fill="hsl(292, 50%, 50%)" opacity="0.47"></circle><circle r="14" cx="19" cy="761" fill="hsl(272, 50%, 50%)" opacity="0.39"></circle><circle r="12" cx="589" cy="605" stroke-width="2" stroke="hsl(291, 50%, 50%)" fill="none" opacity="0.61"></circle><circle r="10.5" cx="443" cy="755" stroke-width="2" stroke="hsl(261, 50%, 50%)" fill="none" opacity="0.92"></circle><circle r="13.5" cx="672" cy="728" fill="hsl(286, 50%, 50%)" opacity="0.52"></circle><circle r="16" cx="261" cy="174" fill="hsl(292, 50%, 50%)" opacity="0.44"></circle><circle r="9.5" cx="398" cy="111" fill="hsl(223, 50%, 50%)" opacity="0.70"></circle><circle r="11.5" cx="277" cy="76" fill="hsl(221, 50%, 50%)" opacity="0.43"></circle><circle r="9" cx="125" cy="569" fill="hsl(301, 50%, 50%)" opacity="0.43"></circle><circle r="13" cx="486" cy="749" stroke-width="2" stroke="hsl(256, 50%, 50%)" fill="none" opacity="0.89"></circle><circle r="6" cx="760" cy="227" fill="hsl(193, 50%, 50%)" opacity="0.26"></circle><circle r="9" cx="756" cy="102" stroke-width="2" stroke="hsl(190, 50%, 50%)" fill="none" opacity="0.98"></circle><circle r="24" cx="117" cy="35" fill="hsl(316, 50%, 50%)" opacity="0.35"></circle><circle r="15.5" cx="487" cy="309" fill="hsl(256, 50%, 50%)" opacity="0.77"></circle><circle r="14" cx="75" cy="417" stroke-width="2" stroke="hsl(299, 50%, 50%)" fill="none" opacity="0.17"></circle><circle r="13.5" cx="689" cy="321" fill="hsl(268, 50%, 50%)" opacity="0.60"></circle><circle r="17" cx="421" cy="312" fill="hsl(270, 50%, 50%)" opacity="0.48"></circle><circle r="11" cx="503" cy="485" stroke-width="2" stroke="hsl(258, 50%, 50%)" fill="none" opacity="0.78"></circle><circle r="11.5" cx="358" cy="161" fill="hsl(275, 50%, 50%)" opacity="0.74"></circle><circle r="13.5" cx="281" cy="502" stroke-width="2" stroke="hsl(292, 50%, 50%)" fill="none" opacity="0.68"></circle><circle r="12.5" cx="587" cy="171" stroke-width="2" stroke="hsl(282, 50%, 50%)" fill="none" opacity="0.70"></circle><circle r="18.5" cx="194" cy="39" stroke-width="2" stroke="hsl(282, 50%, 50%)" fill="none" opacity="0.44"></circle><circle r="16.5" cx="282" cy="775" stroke-width="2" stroke="hsl(292, 50%, 50%)" fill="none" opacity="0.68"></circle><circle r="10.5" cx="430" cy="91" fill="hsl(212, 50%, 50%)" opacity="0.98"></circle><circle r="10" cx="467" cy="499" fill="hsl(256, 50%, 50%)" opacity="0.72"></circle><circle r="14" cx="402" cy="770" stroke-width="2" stroke="hsl(275, 50%, 50%)" fill="none" opacity="0.22"></circle><circle r="10" cx="593" cy="675" stroke-width="2" stroke="hsl(291, 50%, 50%)" fill="none" opacity="0.32"></circle><circle r="14.5" cx="713" cy="466" fill="hsl(242, 50%, 50%)" opacity="0.62"></circle><circle r="10" cx="541" cy="676" stroke-width="2" stroke="hsl(271, 50%, 50%)" fill="none" opacity="0.22"></circle><circle r="21" cx="26" cy="161" fill="hsl(308, 50%, 50%)" opacity="0.51"></circle><circle r="9.5" cx="628" cy="661" stroke-width="2" stroke="hsl(296, 50%, 50%)" fill="none" opacity="0.48"></circle><circle r="14.5" cx="425" cy="651" fill="hsl(270, 50%, 50%)" opacity="0.16"></circle><circle r="11" cx="670" cy="506" stroke-width="2" stroke="hsl(286, 50%, 50%)" fill="none" opacity="0.87"></circle><circle r="11.5" cx="150" cy="608" stroke-width="2" stroke="hsl(300, 50%, 50%)" fill="none" opacity="0.45"></circle><circle r="12.5" cx="425" cy="484" fill="hsl(265, 50%, 50%)" opacity="0.88"></circle><circle r="13" cx="634" cy="514" fill="hsl(296, 50%, 50%)" opacity="0.31"></circle><circle r="9" cx="397" cy="602" fill="hsl(280, 50%, 50%)" opacity="0.96"></circle><circle r="8.5" cx="716" cy="58" stroke-width="2" stroke="hsl(218, 50%, 50%)" fill="none" opacity="0.22"></circle><circle r="17" cx="523" cy="583" stroke-width="2" stroke="hsl(262, 50%, 50%)" fill="none" opacity="0.20"></circle><circle r="14" cx="517" cy="710" stroke-width="2" stroke="hsl(262, 50%, 50%)" fill="none" opacity="0.57"></circle><circle r="6" cx="709" cy="714" stroke-width="2" stroke="hsl(256, 50%, 50%)" fill="none" opacity="0.53"></circle><circle r="13.5" cx="38" cy="685" stroke-width="2" stroke="hsl(287, 50%, 50%)" fill="none" opacity="0.45"></circle><circle r="9" cx="456" cy="245" fill="hsl(258, 50%, 50%)" opacity="0.16"></circle><circle r="10.5" cx="337" cy="658" stroke-width="2" stroke="hsl(294, 50%, 50%)" fill="none" opacity="0.78"></circle><circle r="11.5" cx="336" cy="352" fill="hsl(294, 50%, 50%)" opacity="0.57"></circle><circle r="8.5" cx="739" cy="342" stroke-width="2" stroke="hsl(210, 50%, 50%)" fill="none" opacity="0.10"></circle><circle r="10" cx="105" cy="542" fill="hsl(302, 50%, 50%)" opacity="0.52"></circle><circle r="9" cx="379" cy="138" fill="hsl(260, 50%, 50%)" opacity="0.47"></circle><circle r="13" cx="154" cy="187" fill="hsl(308, 50%, 50%)" opacity="0.64"></circle><circle r="18" cx="353" cy="773" stroke-width="2" stroke="hsl(291, 50%, 50%)" fill="none" opacity="0.58"></circle><circle r="16" cx="616" cy="47" fill="hsl(269, 50%, 50%)" opacity="0.31"></circle><circle r="11" cx="581" cy="17" stroke-width="2" stroke="hsl(271, 50%, 50%)" fill="none" opacity="0.44"></circle><circle r="15.5" cx="118" cy="96" stroke-width="2" stroke="hsl(347, 50%, 50%)" fill="none" opacity="0.34"></circle><circle r="15.5" cx="408" cy="405" stroke-width="2" stroke="hsl(275, 50%, 50%)" fill="none" opacity="0.20"></circle><circle r="14.5" cx="542" cy="493" fill="hsl(271, 50%, 50%)" opacity="0.87"></circle><circle r="15.5" cx="731" cy="581" stroke-width="2" stroke="hsl(226, 50%, 50%)" fill="none" opacity="0.40"></circle><circle r="11" cx="777" cy="340" fill="hsl(157, 50%, 50%)" opacity="0.69"></circle><circle r="11" cx="537" cy="257" fill="hsl(266, 50%, 50%)" opacity="0.19"></circle><circle r="8.5" cx="499" cy="15" stroke-width="2" stroke="hsl(224, 50%, 50%)" fill="none" opacity="0.56"></circle><circle r="12.5" cx="690" cy="614" stroke-width="2" stroke="hsl(268, 50%, 50%)" fill="none" opacity="0.80"></circle><circle r="9.5" cx="780" cy="541" fill="hsl(157, 50%, 50%)" opacity="0.16"></circle><circle r="10.5" cx="18" cy="459" stroke-width="2" stroke="hsl(272, 50%, 50%)" fill="none" opacity="0.61"></circle><circle r="10.5" cx="536" cy="363" stroke-width="2" stroke="hsl(266, 50%, 50%)" fill="none" opacity="0.55"></circle><circle r="13" cx="99" cy="643" fill="hsl(301, 50%, 50%)" opacity="0.28"></circle><circle r="14" cx="586" cy="86" stroke-width="2" stroke="hsl(267, 50%, 50%)" fill="none" opacity="0.34"></circle><circle r="15.5" cx="572" cy="453" stroke-width="2" stroke="hsl(281, 50%, 50%)" fill="none" opacity="0.99"></circle><circle r="7.5" cx="438" cy="788" stroke-width="2" stroke="hsl(261, 50%, 50%)" fill="none" opacity="0.21"></circle><circle r="16.5" cx="175" cy="141" fill="hsl(324, 50%, 50%)" opacity="0.20"></circle><circle r="13" cx="496" cy="154" fill="hsl(248, 50%, 50%)" opacity="0.75"></circle><circle r="9.5" cx="324" cy="294" fill="hsl(295, 50%, 50%)" opacity="0.72"></circle><circle r="17.5" cx="687" cy="172" stroke-width="2" stroke="hsl(274, 50%, 50%)" fill="none" opacity="0.81"></circle><circle r="11.5" cx="14" cy="241" fill="hsl(272, 50%, 50%)" opacity="0.92"></circle><circle r="12" cx="36" cy="275" stroke-width="2" stroke="hsl(280, 50%, 50%)" fill="none" opacity="0.40"></circle><circle r="16" cx="364" cy="442" fill="hsl(288, 50%, 50%)" opacity="0.38"></circle><circle r="11.5" cx="667" cy="281" stroke-width="2" stroke="hsl(286, 50%, 50%)" fill="none" opacity="0.20"></circle><circle r="16.5" cx="622" cy="142" fill="hsl(286, 50%, 50%)" opacity="0.33"></circle><circle r="8.5" cx="781" cy="177" fill="hsl(158, 50%, 50%)" opacity="0.26"></circle><circle r="7.5" cx="746" cy="201" fill="hsl(210, 50%, 50%)" opacity="0.68"></circle><circle r="13" cx="541" cy="147" stroke-width="2" stroke="hsl(261, 50%, 50%)" fill="none" opacity="0.49"></circle><circle r="18" cx="358" cy="555" stroke-width="2" stroke="hsl(291, 50%, 50%)" fill="none" opacity="0.68"></circle><circle r="10" cx="483" cy="615" fill="hsl(256, 50%, 50%)" opacity="0.40"></circle><circle r="9.5" cx="733" cy="727" fill="hsl(226, 50%, 50%)" opacity="0.39"></circle><circle r="13.5" cx="660" cy="23" fill="hsl(255, 50%, 50%)" opacity="0.17"></circle><circle r="8" cx="335" cy="320" fill="hsl(294, 50%, 50%)" opacity="0.70"></circle><circle r="18.5" cx="644" cy="202" fill="hsl(295, 50%, 50%)" opacity="0.43"></circle><circle r="10.5" cx="115" cy="513" stroke-width="2" stroke="hsl(301, 50%, 50%)" fill="none" opacity="0.59"></circle><circle r="16" cx="398" cy="255" stroke-width="2" stroke="hsl(280, 50%, 50%)" fill="none" opacity="0.37"></circle><circle r="9.5" cx="460" cy="137" fill="hsl(236, 50%, 50%)" opacity="0.64"></circle><circle r="11.5" cx="418" cy="168" stroke-width="2" stroke="hsl(263, 50%, 50%)" fill="none" opacity="0.69"></circle><circle r="8.5" cx="565" cy="239" stroke-width="2" stroke="hsl(281, 50%, 50%)" fill="none" opacity="0.13"></circle><circle r="13" cx="44" cy="218" fill="hsl(287, 50%, 50%)" opacity="0.73"></circle><circle r="17.5" cx="445" cy="365" stroke-width="2" stroke="hsl(261, 50%, 50%)" fill="none" opacity="0.27"></circle><circle r="12.5" cx="649" cy="687" fill="hsl(295, 50%, 50%)" opacity="0.84"></circle><circle r="9" cx="299" cy="123" fill="hsl(253, 50%, 50%)" opacity="0.35"></circle><circle r="9.5" cx="299" cy="32" stroke-width="2" stroke="hsl(156, 50%, 50%)" fill="none" opacity="0.45"></circle><circle r="10.5" cx="559" cy="194" stroke-width="2" stroke="hsl(276, 50%, 50%)" fill="none" opacity="0.76"></circle><circle r="10.5" cx="681" cy="575" stroke-width="2" stroke="hsl(278, 50%, 50%)" fill="none" opacity="0.82"></circle><circle r="10.5" cx="320" cy="501" fill="hsl(295, 50%, 50%)" opacity="0.43"></circle><circle r="10.5" cx="305" cy="363" stroke-width="2" stroke="hsl(294, 50%, 50%)" fill="none" opacity="0.39"></circle><circle r="11" cx="355" cy="198" stroke-width="2" stroke="hsl(291, 50%, 50%)" fill="none" opacity="0.95"></circle><circle r="13" cx="173" cy="743" fill="hsl(296, 50%, 50%)" opacity="0.94"></circle><circle r="12.5" cx="774" cy="754" stroke-width="2" stroke="hsl(175, 50%, 50%)" fill="none" opacity="0.19"></circle><circle r="11.5" cx="714" cy="130" stroke-width="2" stroke="hsl(233, 50%, 50%)" fill="none" opacity="0.90"></circle><circle r="15.5" cx="177" cy="89" stroke-width="2" stroke="hsl(319, 50%, 50%)" fill="none" opacity="0.32"></circle><circle r="11.5" cx="440" cy="214" stroke-width="2" stroke="hsl(261, 50%, 50%)" fill="none" opacity="0.49"></circle><circle r="14.5" cx="538" cy="422" fill="hsl(271, 50%, 50%)" opacity="0.16"></circle><circle r="16" cx="307" cy="725" stroke-width="2" stroke="hsl(294, 50%, 50%)" fill="none" opacity="0.82"></circle><circle r="13.5" cx="523" cy="778" fill="hsl(262, 50%, 50%)" opacity="0.69"></circle><circle r="17.5" cx="598" cy="397" fill="hsl(291, 50%, 50%)" opacity="0.18"></circle><circle r="10" cx="463" cy="590" stroke-width="2" stroke="hsl(256, 50%, 50%)" fill="none" opacity="0.91"></circle><circle r="14" cx="192" cy="627" stroke-width="2" stroke="hsl(293, 50%, 50%)" fill="none" opacity="0.53"></circle><circle r="11.5" cx="329" cy="132" fill="hsl(257, 50%, 50%)" opacity="0.45"></circle><circle r="12" cx="54" cy="741" stroke-width="2" stroke="hsl(292, 50%, 50%)" fill="none" opacity="0.22"></circle><circle r="16" cx="301" cy="550" fill="hsl(294, 50%, 50%)" opacity="0.31"></circle><circle r="13.5" cx="377" cy="330" fill="hsl(284, 50%, 50%)" opacity="0.75"></circle><circle r="9.5" cx="41" cy="421" stroke-width="2" stroke="hsl(287, 50%, 50%)" fill="none" opacity="0.71"></circle><circle r="12.5" cx="265" cy="115" fill="hsl(265, 50%, 50%)" opacity="0.40"></circle><circle r="16.5" cx="251" cy="719" stroke-width="2" stroke="hsl(291, 50%, 50%)" fill="none" opacity="0.19"></circle><circle r="14" cx="42" cy="24" fill="hsl(248, 50%, 50%)" opacity="0.95"></circle><circle r="12" cx="684" cy="660" fill="hsl(278, 50%, 50%)" opacity="0.68"></circle><circle r="13" cx="153" cy="708" fill="hsl(298, 50%, 50%)" opacity="0.60"></circle><circle r="11" cx="761" cy="688" fill="hsl(193, 50%, 50%)" opacity="0.68"></circle><circle r="16" cx="530" cy="51" fill="hsl(244, 50%, 50%)" opacity="0.84"></circle><circle r="15" cx="223" cy="211" stroke-width="2" stroke="hsl(291, 50%, 50%)" fill="none" opacity="0.55"></circle><circle r="14" cx="62" cy="305" fill="hsl(292, 50%, 50%)" opacity="0.56"></circle><circle r="16.5" cx="167" cy="453" fill="hsl(296, 50%, 50%)" opacity="0.42"></circle><circle r="12.5" cx="322" cy="205" stroke-width="2" stroke="hsl(295, 50%, 50%)" fill="none" opacity="0.75"></circle><circle r="11.5" cx="270" cy="375" fill="hsl(292, 50%, 50%)" opacity="0.23"></circle><circle r="12.5" cx="18" cy="582" stroke-width="2" stroke="hsl(272, 50%, 50%)" fill="none" opacity="0.62"></circle><circle r="6" cx="775" cy="64" fill="hsl(169, 50%, 50%)" opacity="0.53"></circle><circle r="16.5" cx="117" cy="683" fill="hsl(301, 50%, 50%)" opacity="0.11"></circle><circle r="10" cx="403" cy="455" stroke-width="2" stroke="hsl(275, 50%, 50%)" fill="none" opacity="0.76"></circle><circle r="9" cx="238" cy="387" stroke-width="2" stroke="hsl(290, 50%, 50%)" fill="none" opacity="0.87"></circle><circle r="3" cx="375" cy="7" stroke-width="2" stroke="hsl(130, 50%, 50%)" fill="none" opacity="0.58"></circle><circle r="16" cx="263" cy="455" stroke-width="2" stroke="hsl(292, 50%, 50%)" fill="none" opacity="0.41"></circle><circle r="16" cx="191" cy="273" fill="hsl(293, 50%, 50%)" opacity="0.67"></circle><circle r="12" cx="577" cy="781" fill="hsl(286, 50%, 50%)" opacity="0.93"></circle><circle r="12.5" cx="586" cy="738" stroke-width="2" stroke="hsl(286, 50%, 50%)" fill="none" opacity="0.88"></circle><circle r="16" cx="539" cy="310" stroke-width="2" stroke="hsl(271, 50%, 50%)" fill="none" opacity="0.56"></circle><circle r="11" cx="355" cy="280" stroke-width="2" stroke="hsl(291, 50%, 50%)" fill="none" opacity="0.37"></circle><circle r="16" cx="123" cy="396" fill="hsl(301, 50%, 50%)" opacity="0.82"></circle><circle r="16.5" cx="246" cy="652" fill="hsl(290, 50%, 50%)" opacity="0.11"></circle><circle r="13" cx="292" cy="265" fill="hsl(293, 50%, 50%)" opacity="0.59"></circle><circle r="6.5" cx="212" cy="790" fill="hsl(292, 50%, 50%)" opacity="0.32"></circle><circle r="7" cx="785" cy="233" fill="hsl(157, 50%, 50%)" opacity="0.14"></circle><circle r="10.5" cx="255" cy="412" fill="hsl(291, 50%, 50%)" opacity="0.10"></circle><circle r="17" cx="152" cy="238" stroke-width="2" stroke="hsl(298, 50%, 50%)" fill="none" opacity="0.17"></circle><circle r="12" cx="119" cy="438" fill="hsl(301, 50%, 50%)" opacity="0.87"></circle><circle r="14" cx="499" cy="375" stroke-width="2" stroke="hsl(256, 50%, 50%)" fill="none" opacity="0.90"></circle><circle r="14.5" cx="652" cy="402" stroke-width="2" stroke="hsl(292, 50%, 50%)" fill="none" opacity="0.43"></circle><circle r="4" cx="356" cy="16" fill="hsl(128, 50%, 50%)" opacity="0.35"></circle><circle r="14" cx="57" cy="373" stroke-width="2" stroke="hsl(292, 50%, 50%)" fill="none" opacity="0.19"></circle><circle r="10" cx="603" cy="704" fill="hsl(294, 50%, 50%)" opacity="0.12"></circle><circle r="9" cx="477" cy="785" fill="hsl(256, 50%, 50%)" opacity="0.12"></circle><circle r="14" cx="253" cy="569" fill="hsl(291, 50%, 50%)" opacity="0.96"></circle><circle r="16.5" cx="392" cy="514" fill="hsl(280, 50%, 50%)" opacity="0.74"></circle><circle r="8" cx="377" cy="621" fill="hsl(284, 50%, 50%)" opacity="0.98"></circle><circle r="15.5" cx="147" cy="776" fill="hsl(300, 50%, 50%)" opacity="0.91"></circle><circle r="11.5" cx="137" cy="131" stroke-width="2" stroke="hsl(341, 50%, 50%)" fill="none" opacity="0.41"></circle><circle r="17.5" cx="712" cy="771" stroke-width="2" stroke="hsl(256, 50%, 50%)" fill="none" opacity="0.20"></circle><circle r="12" cx="100" cy="780" stroke-width="2" stroke="hsl(301, 50%, 50%)" fill="none" opacity="0.78"></circle><circle r="15" cx="55" cy="541" fill="hsl(292, 50%, 50%)" opacity="0.81"></circle><circle r="15.5" cx="616" cy="572" fill="hsl(296, 50%, 50%)" opacity="0.34"></circle><circle r="14.5" cx="379" cy="671" stroke-width="2" stroke="hsl(284, 50%, 50%)" fill="none" opacity="0.61"></circle><circle r="14" cx="600" cy="497" stroke-width="2" stroke="hsl(294, 50%, 50%)" fill="none" opacity="0.84"></circle><circle r="12" cx="26" cy="328" stroke-width="2" stroke="hsl(280, 50%, 50%)" fill="none" opacity="0.58"></circle><circle r="12" cx="468" cy="649" fill="hsl(256, 50%, 50%)" opacity="0.85"></circle><circle r="9.5" cx="426" cy="45" stroke-width="2" stroke="hsl(182, 50%, 50%)" fill="none" opacity="0.41"></circle><circle r="7.5" cx="334" cy="32" fill="hsl(138, 50%, 50%)" opacity="0.20"></circle><circle r="13" cx="16" cy="512" stroke-width="2" stroke="hsl(272, 50%, 50%)" fill="none" opacity="0.86"></circle><circle r="15" cx="152" cy="302" stroke-width="2" stroke="hsl(298, 50%, 50%)" fill="none" opacity="0.71"></circle><circle r="8" cx="11" cy="422" stroke-width="2" stroke="hsl(263, 50%, 50%)" fill="none" opacity="0.33"></circle><circle r="10" cx="62" cy="785" stroke-width="2" stroke="hsl(292, 50%, 50%)" fill="none" opacity="0.13"></circle><circle r="8.5" cx="694" cy="696" stroke-width="2" stroke="hsl(268, 50%, 50%)" fill="none" opacity="0.88"></circle><circle r="16.5" cx="358" cy="390" fill="hsl(291, 50%, 50%)" opacity="0.22"></circle><circle r="12.5" cx="494" cy="434" fill="hsl(256, 50%, 50%)" opacity="0.45"></circle><circle r="13" cx="214" cy="678" stroke-width="2" stroke="hsl(291, 50%, 50%)" fill="none" opacity="0.66"></circle><circle r="10.5" cx="718" cy="665" stroke-width="2" stroke="hsl(242, 50%, 50%)" fill="none" opacity="0.63"></circle><circle r="10.5" cx="554" cy="110" stroke-width="2" stroke="hsl(259, 50%, 50%)" fill="none" opacity="0.28"></circle><circle r="10.5" cx="420" cy="585" stroke-width="2" stroke="hsl(270, 50%, 50%)" fill="none" opacity="0.25"></circle><circle r="10.5" cx="20" cy="61" stroke-width="2" stroke="hsl(263, 50%, 50%)" fill="none" opacity="0.48"></circle><circle r="13" cx="33" cy="96" fill="hsl(308, 50%, 50%)" opacity="0.65"></circle><circle r="6" cx="419" cy="13" stroke-width="2" stroke="hsl(163, 50%, 50%)" fill="none" opacity="0.38"></circle><circle r="14" cx="75" cy="195" fill="hsl(299, 50%, 50%)" opacity="0.89"></circle><circle r="14.5" cx="246" cy="27" stroke-width="2" stroke="hsl(210, 50%, 50%)" fill="none" opacity="0.88"></circle><circle r="9" cx="13" cy="362" fill="hsl(272, 50%, 50%)" opacity="0.18"></circle><circle r="12.5" cx="477" cy="537" fill="hsl(256, 50%, 50%)" opacity="0.24"></circle><circle r="11" cx="683" cy="56" stroke-width="2" stroke="hsl(244, 50%, 50%)" fill="none" opacity="0.17"></circle><circle r="12" cx="567" cy="636" fill="hsl(281, 50%, 50%)" opacity="0.76"></circle><circle r="13.5" cx="227" cy="605" stroke-width="2" stroke="hsl(290, 50%, 50%)" fill="none" opacity="0.58"></circle><circle r="6" cx="438" cy="128" fill="hsl(237, 50%, 50%)" opacity="0.55"></circle><circle r="18.5" cx="158" cy="358" fill="hsl(298, 50%, 50%)" opacity="0.13"></circle><circle r="14.5" cx="317" cy="596" fill="hsl(295, 50%, 50%)" opacity="0.77"></circle><circle r="11.5" cx="720" cy="229" stroke-width="2" stroke="hsl(242, 50%, 50%)" fill="none" opacity="0.66"></circle><circle r="14.5" cx="769" cy="421" stroke-width="2" stroke="hsl(175, 50%, 50%)" fill="none" opacity="0.85"></circle><circle r="11" cx="192" cy="194" stroke-width="2" stroke="hsl(293, 50%, 50%)" fill="none" opacity="0.51"></circle><circle r="15.5" cx="108" cy="288" fill="hsl(302, 50%, 50%)" opacity="0.51"></circle><circle r="5" cx="374" cy="36" fill="hsl(142, 50%, 50%)" opacity="0.60"></circle><circle r="10" cx="292" cy="304" fill="hsl(293, 50%, 50%)" opacity="0.48"></circle><circle r="10" cx="348" cy="621" fill="hsl(293, 50%, 50%)" opacity="0.78"></circle><circle r="12.5" cx="631" cy="299" fill="hsl(296, 50%, 50%)" opacity="0.65"></circle><circle r="18" cx="625" cy="449" stroke-width="2" stroke="hsl(296, 50%, 50%)" fill="none" opacity="0.95"></circle><circle r="16.5" cx="73" cy="103" fill="hsl(339, 50%, 50%)" opacity="0.24"></circle><circle r="10.5" cx="742" cy="530" stroke-width="2" stroke="hsl(210, 50%, 50%)" fill="none" opacity="0.71"></circle><circle r="15.5" cx="378" cy="719" stroke-width="2" stroke="hsl(284, 50%, 50%)" fill="none" opacity="0.29"></circle><circle r="8.5" cx="539" cy="223" stroke-width="2" stroke="hsl(271, 50%, 50%)" fill="none" opacity="0.51"></circle><circle r="13" cx="90" cy="578" stroke-width="2" stroke="hsl(301, 50%, 50%)" fill="none" opacity="0.96"></circle><circle r="15.5" cx="468" cy="697" fill="hsl(256, 50%, 50%)" opacity="0.10"></circle><circle r="12.5" cx="342" cy="475" fill="hsl(293, 50%, 50%)" opacity="0.17"></circle><circle r="16.5" cx="581" cy="285" stroke-width="2" stroke="hsl(286, 50%, 50%)" fill="none" opacity="0.28"></circle><circle r="13" cx="426" cy="716" stroke-width="2" stroke="hsl(265, 50%, 50%)" fill="none" opacity="0.16"></circle><circle r="11.5" cx="502" cy="250" stroke-width="2" stroke="hsl(258, 50%, 50%)" fill="none" opacity="0.50"></circle><circle r="9" cx="377" cy="222" fill="hsl(284, 50%, 50%)" opacity="0.35"></circle><circle r="8" cx="783" cy="286" fill="hsl(157, 50%, 50%)" opacity="0.40"></circle><circle r="12" cx="677" cy="448" stroke-width="2" stroke="hsl(278, 50%, 50%)" fill="none" opacity="0.84"></circle><circle r="12" cx="449" cy="424" stroke-width="2" stroke="hsl(261, 50%, 50%)" fill="none" opacity="0.70"></circle><circle r="9" cx="781" cy="601" fill="hsl(157, 50%, 50%)" opacity="1.00"></circle><circle r="10.5" cx="457" cy="460" stroke-width="2" stroke="hsl(258, 50%, 50%)" fill="none" opacity="0.98"></circle><circle r="12" cx="323" cy="244" stroke-width="2" stroke="hsl(295, 50%, 50%)" fill="none" opacity="0.74"></circle><circle r="12.5" cx="307" cy="167" fill="hsl(288, 50%, 50%)" opacity="0.82"></circle><circle r="13.5" cx="687" cy="248" fill="hsl(278, 50%, 50%)" opacity="0.20"></circle><circle r="10" cx="453" cy="277" stroke-width="2" stroke="hsl(258, 50%, 50%)" fill="none" opacity="0.36"></circle><circle r="12.5" cx="175" cy="582" fill="hsl(295, 50%, 50%)" opacity="0.95"></circle><circle r="12" cx="546" cy="741" stroke-width="2" stroke="hsl(271, 50%, 50%)" fill="none" opacity="0.36"></circle><circle r="16" cx="239" cy="520" stroke-width="2" stroke="hsl(290, 50%, 50%)" fill="none" opacity="0.99"></circle><circle r="18" cx="302" cy="420" fill="hsl(294, 50%, 50%)" opacity="0.93"></circle><circle r="12" cx="241" cy="350" fill="hsl(290, 50%, 50%)" opacity="0.68"></circle><circle r="9.5" cx="654" cy="624" stroke-width="2" stroke="hsl(292, 50%, 50%)" fill="none" opacity="0.49"></circle><circle r="8" cx="746" cy="58" stroke-width="2" stroke="hsl(200, 50%, 50%)" fill="none" opacity="0.77"></circle><circle r="10.5" cx="151" cy="553" fill="hsl(298, 50%, 50%)" opacity="0.64"></circle><circle r="19" cx="98" cy="344" fill="hsl(301, 50%, 50%)" opacity="0.97"></circle><circle r="13" cx="516" cy="646" stroke-width="2" stroke="hsl(262, 50%, 50%)" fill="none" opacity="0.50"></circle><circle r="13.5" cx="739" cy="280" fill="hsl(210, 50%, 50%)" opacity="0.71"></circle><circle r="11" cx="396" cy="197" fill="hsl(280, 50%, 50%)" opacity="0.83"></circle><circle r="15" cx="295" cy="652" stroke-width="2" stroke="hsl(293, 50%, 50%)" fill="none" opacity="0.31"></circle><circle r="15" cx="211" cy="325" stroke-width="2" stroke="hsl(292, 50%, 50%)" fill="none" opacity="0.23"></circle><circle r="10" cx="93" cy="486" fill="hsl(301, 50%, 50%)" opacity="0.79"></circle><circle r="11" cx="464" cy="183" fill="hsl(254, 50%, 50%)" opacity="0.13"></circle><circle r="14.5" cx="635" cy="355" stroke-width="2" stroke="hsl(296, 50%, 50%)" fill="none" opacity="0.34"></circle><circle r="9.5" cx="469" cy="79" stroke-width="2" stroke="hsl(214, 50%, 50%)" fill="none" opacity="0.14"></circle><circle r="12" cx="700" cy="410" stroke-width="2" stroke="hsl(268, 50%, 50%)" fill="none" opacity="0.17"></circle><circle r="13.5" cx="24" cy="645" fill="hsl(272, 50%, 50%)" opacity="0.37"></circle><circle r="10" cx="772" cy="136" fill="hsl(176, 50%, 50%)" opacity="0.67"></circle><circle r="10.5" cx="662" cy="548" stroke-width="2" stroke="hsl(292, 50%, 50%)" fill="none" opacity="0.48"></circle><circle r="17" cx="224" cy="130" fill="hsl(300, 50%, 50%)" opacity="0.20"></circle><circle r="11" cx="734" cy="379" stroke-width="2" stroke="hsl(226, 50%, 50%)" fill="none" opacity="0.69"></circle><circle r="12" cx="757" cy="641" stroke-width="2" stroke="hsl(193, 50%, 50%)" fill="none" opacity="0.98"></circle><circle r="9" cx="466" cy="40" stroke-width="2" stroke="hsl(205, 50%, 50%)" fill="none" opacity="0.92"></circle><circle r="14.5" cx="110" cy="741" fill="hsl(302, 50%, 50%)" opacity="0.30"></circle><circle r="15.5" cx="619" cy="250" fill="hsl(296, 50%, 50%)" opacity="0.16"></circle><circle r="9.5" cx="714" cy="94" stroke-width="2" stroke="hsl(224, 50%, 50%)" fill="none" opacity="0.31"></circle><circle r="10.5" cx="622" cy="631" fill="hsl(296, 50%, 50%)" opacity="0.31"></circle><circle r="12" cx="118" cy="188" fill="hsl(301, 50%, 50%)" opacity="0.31"></circle><circle r="14" cx="632" cy="731" stroke-width="2" stroke="hsl(296, 50%, 50%)" fill="none" opacity="0.63"></circle><circle r="16.5" cx="170" cy="514" stroke-width="2" stroke="hsl(296, 50%, 50%)" fill="none" opacity="0.27"></circle><circle r="13.5" cx="246" cy="251" stroke-width="2" stroke="hsl(290, 50%, 50%)" fill="none" opacity="0.86"></circle><circle r="10" cx="357" cy="246" fill="hsl(291, 50%, 50%)" opacity="0.88"></circle><circle r="12.5" cx="682" cy="364" stroke-width="2" stroke="hsl(278, 50%, 50%)" fill="none" opacity="0.45"></circle><circle r="9" cx="20" cy="392" stroke-width="2" stroke="hsl(272, 50%, 50%)" fill="none" opacity="0.24"></circle><circle r="10.5" cx="213" cy="763" stroke-width="2" stroke="hsl(291, 50%, 50%)" fill="none" opacity="0.99"></circle><circle r="12" cx="132" cy="478" fill="hsl(301, 50%, 50%)" opacity="0.73"></circle><circle r="7" cx="416" cy="136" stroke-width="2" stroke="hsl(241, 50%, 50%)" fill="none" opacity="0.37"></circle><circle r="12.5" cx="351" cy="94" fill="hsl(210, 50%, 50%)" opacity="0.85"></circle></svg>