<svg xmlns="http://www.w3.org/2000/svg" version="1.1" xmlns:xlink="http://www.w3.org/1999/xlink" viewBox="0 0 700 700" style="overflow: hidden; display: block;" width="700" height="700"><defs><linearGradient id="two-7" x1="350" y1="-350" x2="350" y2="350" spreadMethod="pad" gradientUnits="userSpaceOnUse"><stop offset="0%" stop-color="hsl(1.4, 100%, 67%)" stop-opacity="1"></stop><stop offset="100%" stop-color="hsl(167, 52%, 78%)" stop-opacity="1"></stop></linearGradient></defs><g id="two-0" transform="matrix(1 0 0 1 0 0)" opacity="1"><path transform="matrix(1 0 0 1 350 350)" id="two-11" d="M 316.966421 93.069738 C 309.597089 135.626958 215.88648 87.626602 189.236788 121.615099 C 169.03722 147.377234 209.249004 193.40465 191.320983 220.796185 C 176.435366 243.53935 142.2484 254.414659 115.160128 252.165506 C 81.60101 249.379076 56.984218 216.247233 28.507439 198.273596 C 11.206229 187.353623 -3.518496 161.475222 -23.699796 164.835698 C -87.238543 175.415811 -86.323503 344.077359 -145.085908 317.693823 C -202.594258 291.873341 -121.628324 191.848031 -112.224861 129.514393 C -109.123268 108.95456 -89.685328 81.829262 -104.271094 67.010963 C -150.741825 19.799373 -268.092547 145.007154 -303.784944 89.199307 C -322.315302 60.225647 -255.709546 33.895664 -249.884508 0 C -245.427858 -25.93307 -272.136253 -52.515514 -265.973764 -78.096944 C -259.904758 -103.290313 -230.190054 -117.144057 -216.843349 -139.356759 C -203.131747 -162.176753 -207.068393 -198.619687 -184.971448 -213.46843 C -161.208112 -229.436957 -125.957408 -207.963444 -98.228338 -215.090056 C -75.630368 -220.897931 -54.497385 -234.250438 -35.659553 -248.017635 C -4.589198 -270.724691 9.86593 -338.232545 47.425117 -329.84894 C 90.326379 -320.272928 86.862708 -248.336933 93.57243 -204.895042 C 98.741633 -171.42719 61.51508 -122.555201 88.720993 -102.389485 C 133.330117 -69.324068 215.259898 -204.286199 247.220338 -158.878865 C 275.125994 -119.232308 162.766308 -92.94728 154.094843 -45.246329 C 151.274956 -29.734384 159.676757 -12.382841 169.435725 -0.000001 C 205.066324 45.210523 326.788081 36.350552 316.966421 93.069738 Z " fill="url(#two-7)" stroke="undefined" stroke-width="1" stroke-opacity="1" fill-opacity="1" visibility="visible" stroke-linecap="butt" stroke-linejoin="miter" stroke-miterlimit="4"></path></g></svg>