<svg xmlns="http://www.w3.org/2000/svg" version="1.1" xmlns:xlink="http://www.w3.org/1999/xlink" xmlns:svgjs="http://svgjs.dev/svgjs" viewBox="0 0 1422 800"><g fill="none" stroke-width="3" stroke="hsl(335, 77%, 50%)" stroke-linecap="round"><line x1="884" y1="400" x2="538" y2="400" transform="rotate(0, 711, 400)" opacity="0.35"></line><line x1="872" y1="400" x2="550" y2="400" transform="rotate(4, 711, 400)" opacity="0.47"></line><line x1="1045.5" y1="400" x2="376.5" y2="400" transform="rotate(8, 711, 400)" opacity="0.82"></line><line x1="1004" y1="400" x2="418" y2="400" transform="rotate(12, 711, 400)" opacity="0.98"></line><line x1="905" y1="400" x2="517" y2="400" transform="rotate(16, 711, 400)" opacity="0.09"></line><line x1="1286.5" y1="400" x2="135.5" y2="400" transform="rotate(20, 711, 400)" opacity="0.21"></line><line x1="1315" y1="400" x2="107" y2="400" transform="rotate(24, 711, 400)" opacity="0.98"></line><line x1="1339" y1="400" x2="83" y2="400" transform="rotate(28, 711, 400)" opacity="0.89"></line><line x1="747.5" y1="400" x2="674.5" y2="400" transform="rotate(32, 711, 400)" opacity="0.68"></line><line x1="875" y1="400" x2="547" y2="400" transform="rotate(36, 711, 400)" opacity="0.59"></line><line x1="837.5" y1="400" x2="584.5" y2="400" transform="rotate(40, 711, 400)" opacity="0.38"></line><line x1="1257.5" y1="400" x2="164.5" y2="400" transform="rotate(44, 711, 400)" opacity="0.41"></line><line x1="1128" y1="400" x2="294" y2="400" transform="rotate(48, 711, 400)" opacity="0.46"></line><line x1="1312.5" y1="400" x2="109.5" y2="400" transform="rotate(52, 711, 400)" opacity="0.51"></line><line x1="876.5" y1="400" x2="545.5" y2="400" transform="rotate(56, 711, 400)" opacity="0.71"></line><line x1="1101" y1="400" x2="321" y2="400" transform="rotate(60, 711, 400)" opacity="0.07"></line><line x1="1098.5" y1="400" x2="323.5" y2="400" transform="rotate(64, 711, 400)" opacity="0.46"></line><line x1="712.5" y1="400" x2="709.5" y2="400" transform="rotate(68, 711, 400)" opacity="0.88"></line><line x1="1280" y1="400" x2="142" y2="400" transform="rotate(72, 711, 400)" opacity="0.52"></line><line x1="668" y1="400" x2="754" y2="400" transform="rotate(76, 711, 400)" opacity="0.63"></line><line x1="1185" y1="400" x2="237" y2="400" transform="rotate(80, 711, 400)" opacity="0.37"></line><line x1="1001.5" y1="400" x2="420.5" y2="400" transform="rotate(84, 711, 400)" opacity="0.74"></line><line x1="733.5" y1="400" x2="688.5" y2="400" transform="rotate(88, 711, 400)" opacity="0.70"></line><line x1="1082.5" y1="400" x2="339.5" y2="400" transform="rotate(92, 711, 400)" opacity="0.53"></line><line x1="1284" y1="400" x2="138" y2="400" transform="rotate(96, 711, 400)" opacity="0.35"></line><line x1="756.5" y1="400" x2="665.5" y2="400" transform="rotate(100, 711, 400)" opacity="0.97"></line><line x1="731" y1="400" x2="691" y2="400" transform="rotate(104, 711, 400)" opacity="0.13"></line><line x1="765" y1="400" x2="657" y2="400" transform="rotate(108, 711, 400)" opacity="0.73"></line><line x1="710.5" y1="400" x2="711.5" y2="400" transform="rotate(112, 711, 400)" opacity="0.42"></line><line x1="1168.5" y1="400" x2="253.5" y2="400" transform="rotate(116, 711, 400)" opacity="0.37"></line><line x1="1041" y1="400" x2="381" y2="400" transform="rotate(120, 711, 400)" opacity="0.13"></line><line x1="955.5" y1="400" x2="466.5" y2="400" transform="rotate(124, 711, 400)" opacity="0.60"></line><line x1="1354" y1="400" x2="68" y2="400" transform="rotate(128, 711, 400)" opacity="0.64"></line><line x1="1266.5" y1="400" x2="155.5" y2="400" transform="rotate(132, 711, 400)" opacity="0.32"></line><line x1="1176.5" y1="400" x2="245.5" y2="400" transform="rotate(136, 711, 400)" opacity="0.20"></line><line x1="883" y1="400" x2="539" y2="400" transform="rotate(140, 711, 400)" opacity="0.14"></line><line x1="1017.5" y1="400" x2="404.5" y2="400" transform="rotate(144, 711, 400)" opacity="0.73"></line><line x1="1156" y1="400" x2="266" y2="400" transform="rotate(148, 711, 400)" opacity="0.39"></line><line x1="983" y1="400" x2="439" y2="400" transform="rotate(152, 711, 400)" opacity="0.94"></line><line x1="1331.5" y1="400" x2="90.5" y2="400" transform="rotate(156, 711, 400)" opacity="0.48"></line><line x1="1054.5" y1="400" x2="367.5" y2="400" transform="rotate(160, 711, 400)" opacity="0.11"></line><line x1="1270" y1="400" x2="152" y2="400" transform="rotate(164, 711, 400)" opacity="0.27"></line><line x1="1268" y1="400" x2="154" y2="400" transform="rotate(168, 711, 400)" opacity="0.86"></line><line x1="845" y1="400" x2="577" y2="400" transform="rotate(172, 711, 400)" opacity="0.58"></line><line x1="718" y1="400" x2="704" y2="400" transform="rotate(176, 711, 400)" opacity="0.25"></line><line x1="1216" y1="400" x2="206" y2="400" transform="rotate(180, 711, 400)" opacity="0.80"></line><line x1="985.5" y1="400" x2="436.5" y2="400" transform="rotate(184, 711, 400)" opacity="0.15"></line><line x1="1225" y1="400" x2="197" y2="400" transform="rotate(188, 711, 400)" opacity="0.83"></line><line x1="1046" y1="400" x2="376" y2="400" transform="rotate(192, 711, 400)" opacity="0.50"></line><line x1="670" y1="400" x2="752" y2="400" transform="rotate(196, 711, 400)" opacity="0.63"></line><line x1="1197.5" y1="400" x2="224.5" y2="400" transform="rotate(200, 711, 400)" opacity="0.39"></line><line x1="827" y1="400" x2="595" y2="400" transform="rotate(204, 711, 400)" opacity="0.60"></line><line x1="910" y1="400" x2="512" y2="400" transform="rotate(208, 711, 400)" opacity="0.10"></line><line x1="765.5" y1="400" x2="656.5" y2="400" transform="rotate(212, 711, 400)" opacity="0.57"></line><line x1="969" y1="400" x2="453" y2="400" transform="rotate(216, 711, 400)" opacity="0.81"></line><line x1="925.5" y1="400" x2="496.5" y2="400" transform="rotate(220, 711, 400)" opacity="0.37"></line><line x1="1163.5" y1="400" x2="258.5" y2="400" transform="rotate(224, 711, 400)" opacity="0.99"></line><line x1="1247.5" y1="400" x2="174.5" y2="400" transform="rotate(228, 711, 400)" opacity="0.45"></line><line x1="1002.5" y1="400" x2="419.5" y2="400" transform="rotate(232, 711, 400)" opacity="0.37"></line><line x1="1117" y1="400" x2="305" y2="400" transform="rotate(236, 711, 400)" opacity="0.73"></line><line x1="1201.5" y1="400" x2="220.5" y2="400" transform="rotate(240, 711, 400)" opacity="0.12"></line><line x1="818" y1="400" x2="604" y2="400" transform="rotate(244, 711, 400)" opacity="0.30"></line><line x1="1056.5" y1="400" x2="365.5" y2="400" transform="rotate(248, 711, 400)" opacity="0.55"></line><line x1="1253.5" y1="400" x2="168.5" y2="400" transform="rotate(252, 711, 400)" opacity="0.95"></line><line x1="1043" y1="400" x2="379" y2="400" transform="rotate(256, 711, 400)" opacity="0.84"></line><line x1="917" y1="400" x2="505" y2="400" transform="rotate(260, 711, 400)" opacity="0.53"></line><line x1="1311.5" y1="400" x2="110.5" y2="400" transform="rotate(264, 711, 400)" opacity="0.89"></line><line x1="760" y1="400" x2="662" y2="400" transform="rotate(268, 711, 400)" opacity="0.22"></line><line x1="1148" y1="400" x2="274" y2="400" transform="rotate(272, 711, 400)" opacity="0.99"></line><line x1="723" y1="400" x2="699" y2="400" transform="rotate(276, 711, 400)" opacity="0.51"></line><line x1="1000.5" y1="400" x2="421.5" y2="400" transform="rotate(280, 711, 400)" opacity="0.46"></line><line x1="1051.5" y1="400" x2="370.5" y2="400" transform="rotate(284, 711, 400)" opacity="0.57"></line><line x1="1146" y1="400" x2="276" y2="400" transform="rotate(288, 711, 400)" opacity="0.41"></line><line x1="1308" y1="400" x2="114" y2="400" transform="rotate(292, 711, 400)" opacity="0.09"></line><line x1="1193" y1="400" x2="229" y2="400" transform="rotate(296, 711, 400)" opacity="0.22"></line><line x1="775" y1="400" x2="647" y2="400" transform="rotate(300, 711, 400)" opacity="0.37"></line><line x1="1190" y1="400" x2="232" y2="400" transform="rotate(304, 711, 400)" opacity="0.11"></line><line x1="1193.5" y1="400" x2="228.5" y2="400" transform="rotate(308, 711, 400)" opacity="0.32"></line><line x1="1302.5" y1="400" x2="119.5" y2="400" transform="rotate(312, 711, 400)" opacity="0.65"></line><line x1="1088.5" y1="400" x2="333.5" y2="400" transform="rotate(316, 711, 400)" opacity="0.34"></line><line x1="1145" y1="400" x2="277" y2="400" transform="rotate(320, 711, 400)" opacity="0.63"></line><line x1="1019.5" y1="400" x2="402.5" y2="400" transform="rotate(324, 711, 400)" opacity="0.71"></line><line x1="871" y1="400" x2="551" y2="400" transform="rotate(328, 711, 400)" opacity="0.50"></line><line x1="864" y1="400" x2="558" y2="400" transform="rotate(332, 711, 400)" opacity="0.07"></line><line x1="1056" y1="400" x2="366" y2="400" transform="rotate(336, 711, 400)" opacity="0.98"></line><line x1="1208.5" y1="400" x2="213.5" y2="400" transform="rotate(340, 711, 400)" opacity="0.77"></line><line x1="1088.5" y1="400" x2="333.5" y2="400" transform="rotate(344, 711, 400)" opacity="0.25"></line><line x1="1301.5" y1="400" x2="120.5" y2="400" transform="rotate(348, 711, 400)" opacity="0.20"></line></g></svg>